<?xml version="1.0" encoding="UTF-8"?>
<svg width="45px" height="45px" viewBox="0 0 45 45" version="1.1" xmlns="http://www.w3.org/2000/svg" xmlns:xlink="http://www.w3.org/1999/xlink">
    <!-- Generator: Sketch 46.2 (44496) - http://www.bohemiancoding.com/sketch -->
    <title>euro-circle</title>
    <desc>Created with Sketch.</desc>
    <defs></defs>
    <g id="Pages" stroke="none" stroke-width="1" fill="none" fill-rule="evenodd">
        <g id="07---Nos-agences---Fiche-agence---1-" transform="translate(-901.000000, -536.000000)">
            <g id="Content" transform="translate(94.000000, 252.000000)">
                <g id="Head" transform="translate(75.000000, 69.000000)">
                    <g id="right" transform="translate(318.000000, 0.000000)">
                        <g id="acces" transform="translate(2.000000, 216.000000)">
                            <g id="Group-4">
                                <g id="euro-circle" transform="translate(413.000000, 0.000000)">
                                    <circle id="Oval-Copy-2" stroke="#EA094B" stroke-width="0.8" fill="#FFFFFF" cx="21.6" cy="21.6" r="21.6"></circle>
                                    <g id="icon/pink/euro" transform="translate(9.000000, 10.000000)" fill="#E5004D">
                                        <path d="M17.1612,17.1696 C17.2620005,17.2848006 17.3124,17.4215992 17.3124,17.58 C17.3124,17.8104012 17.211601,17.9831994 17.01,18.0984 C16.5059975,18.4728019 15.8832037,18.7859987 15.1416,19.038 C14.3999963,19.2900013 13.6836035,19.416 12.9924,19.416 C11.9267947,19.416 10.9296046,19.1964022 10.0008,18.7572 C9.07199536,18.3179978 8.27280335,17.698804 7.6032,16.8996 C6.93359665,16.100396 6.44760151,15.1608054 6.1452,14.0808 L4.59,14.0592 C4.38839899,14.0592 4.22640061,14.0016006 4.104,13.8864 C3.98159939,13.7711994 3.9204,13.6200009 3.9204,13.4328 C3.9204,13.2455991 3.98159939,13.0944006 4.104,12.9792 C4.22640061,12.8639994 4.38839899,12.8064 4.59,12.8064 L5.886,12.828 C5.84279978,12.4391981 5.8212,12.043202 5.8212,11.64 C5.8212,11.4239989 5.82839993,11.2656005 5.8428,11.1648 L4.59,11.1432 C4.38839899,11.1432 4.22640061,11.0856006 4.104,10.9704 C3.98159939,10.8551994 3.9204,10.7040009 3.9204,10.5168 C3.9204,10.3295991 3.98159939,10.1784006 4.104,10.0632 C4.22640061,9.94799942 4.38839899,9.8904 4.59,9.8904 L5.994,9.912 C6.22440115,8.7311941 6.67079669,7.68720454 7.3332,6.78 C7.99560331,5.87279546 8.8163951,5.16360256 9.7956,4.6524 C10.7748049,4.14119744 11.8403942,3.8856 12.9924,3.8856 C13.7124036,3.8856 14.4179965,4.00079885 15.1092,4.2312 C15.8004035,4.46160115 16.4267972,4.78559791 16.9884,5.2032 C17.2044011,5.33280065 17.3124,5.51279885 17.3124,5.7432 C17.3124,5.87280065 17.2620005,6.01679921 17.1612,6.1752 C17.0315994,6.33360079 16.8732009,6.4128 16.686,6.4128 C16.5851995,6.4128 16.4628007,6.37680036 16.3188,6.3048 C15.2963949,5.54159618 14.187606,5.16 12.9924,5.16 C11.595593,5.16 10.3824051,5.59199568 9.3528,6.456 C8.32319485,7.32000432 7.64280166,8.4719928 7.3116,9.912 L11.6532,9.9552 C11.854801,9.9552 12.0167994,10.0127994 12.1392,10.128 C12.2616006,10.2432006 12.3228,10.3943991 12.3228,10.5816 C12.3228,10.7688009 12.2616006,10.9199994 12.1392,11.0352 C12.0167994,11.1504006 11.854801,11.208 11.6532,11.208 L7.1388,11.1648 C7.12439993,11.2656005 7.1172,11.4239989 7.1172,11.64 C7.1172,12.0864022 7.14599971,12.4823983 7.2036,12.828 L11.6532,12.8712 C11.854801,12.8712 12.0167994,12.9287994 12.1392,13.044 C12.2616006,13.1592006 12.3228,13.3103991 12.3228,13.4976 C12.3228,13.6848009 12.2616006,13.8359994 12.1392,13.9512 C12.0167994,14.0664006 11.854801,14.124 11.6532,14.124 L7.506,14.0808 C7.90920202,15.3336063 8.60759503,16.3235964 9.6012,17.0508 C10.594805,17.7780036 11.7251937,18.1416 12.9924,18.1416 C14.202006,18.1416 15.303595,17.7672037 16.2972,17.0184 C16.4124006,16.9463996 16.5347994,16.9104 16.6644,16.9104 C16.866001,16.9104 17.0315994,16.9967991 17.1612,17.1696 Z" id="€"></path>
                                    </g>
                                </g>
                            </g>
                        </g>
                    </g>
                </g>
            </g>
        </g>
    </g>
</svg>