<?xml version="1.0" encoding="utf-8"?>
<!-- Generator: Adobe Illustrator 22.0.1, SVG Export Plug-In . SVG Version: 6.00 Build 0)  -->
<svg version="1.1" id="Calque_1" xmlns="http://www.w3.org/2000/svg" xmlns:xlink="http://www.w3.org/1999/xlink" x="0px" y="0px"
	 viewBox="0 0 47 47" style="enable-background:new 0 0 47 47;" xml:space="preserve">
<style type="text/css">
	.st0{fill:#FFFFFF;stroke:#EA094B;stroke-width:0.833;}
	.st1{fill:#E5004D;}
</style>
<circle class="st0" cx="23.5" cy="23.5" r="22.5"/>
<g>
	<path class="st1" d="M23.5,19.4c-1.6,0-3-1.3-3-3c0-1.6,1.3-3,3-3s3,1.3,3,3C26.5,18.1,25.1,19.4,23.5,19.4z M23.5,14.5
		c-1.1,0-2,0.9-2,2s0.9,2,2,2s2-0.9,2-2S24.6,14.5,23.5,14.5z"/>
	<path class="st1" d="M20.1,33.5c-0.3,0-0.5-0.2-0.5-0.5v-1.9c0-0.3,0.2-0.5,0.5-0.5h0.7v-7.1h-0.7c-0.3,0-0.5-0.2-0.5-0.5v-1.9
		c0-0.3,0.2-0.5,0.5-0.5h5.5c0.3,0,0.5,0.2,0.5,0.5v9.5h0.7c0.3,0,0.5,0.2,0.5,0.5V33c0,0.3-0.2,0.5-0.5,0.5H20.1z M20.6,32.5h5.8
		v-0.9h-0.7c-0.3,0-0.5-0.2-0.5-0.5v-9.5h-4.5v0.9h0.7c0.3,0,0.5,0.2,0.5,0.5v8.1c0,0.3-0.2,0.5-0.5,0.5h-0.7V32.5z"/>
</g>
</svg>
